<svg xmlns="http://www.w3.org/2000/svg" viewBox="0 0 694.76 778.27"><path fill="currentColor" d="M21.25 253.7a111.7 111.7 0 0 1 12.2 23.11 234 234 0 0 1 11.88 44.43q2.79 14.36 6.42 43.92a166.9 166.9 0 0 0 11.11 43.27Q69.73 424 79 451.83c6.78 20.61 12 35.17 15.64 43.6a229.2 229.2 0 0 0 57.78 84.88l.77.57-.38.39 12.32 6.42c2.06 1 4 2 5.91 3.08A136.5 136.5 0 0 1 149 568a154 154 0 0 1-14-23.11c-5.33-10.28-9.44-18-12.2-23.12a378.8 378.8 0 0 1-35.51-93.42q-1.34-6-12.32-47.19-7.71-29.2-11.88-47.64a185.2 185.2 0 0 0-29-63.05Zm341.38 400.51c-2.18.51-4.56 1-7.13 1.73l-5.5 1.41a75.8 75.8 0 0 1-12.84 26.39 281.8 281.8 0 0 1-32.1 40.51q-49.19 52.08-83.46 49.83l-49.76 2.82a32.3 32.3 0 0 1-6.42.77 123.2 123.2 0 0 1-38.53-2.25.5.5 0 0 1-.38 0 23.8 23.8 0 0 1-11.88-2.11 2.2 2.2 0 0 0 0 1h-2.5a18.7 18.7 0 0 1-.65-3.85 94.73 94.73 0 0 1 17.79-56.31 202.4 202.4 0 0 1 33.06-38.52h-1.73q-18.49 1-62.28-31.27Q84.17 634 70.63 622.43a105.4 105.4 0 0 1-12-10.92c0-.64.19-1 .58-1.15v-1.74l26.64-2.12 18.69-1c1.66 0 2.5 0 2.56-.65l34.16-1.67 37.5 2.06q-31.4-18.69-54.13-33.2A186.4 186.4 0 0 1 84 537q-20.34-25-30.24-35.31Q36.09 482.4 19 432.44a299 299 0 0 1-17.2-77q-1-18.5-1.16-21.9a147 147 0 0 1 1-21.89L0 275.72c.39-9.89 1-17.46 1.61-22.73a85.5 85.5 0 0 1 3.14-16.24h.19a5.3 5.3 0 0 1 .45-1.93 6 6 0 0 0-.7-1.54 3.4 3.4 0 0 1 1.31-.71 8 8 0 0 1 .38-1.22 2.3 2.3 0 0 1 .9.58c2.31 0 4.24 1.41 5.65 4.43a23.94 23.94 0 0 1 8.92 6.42A175 175 0 0 1 35.18 257l10.41 13.42a154 154 0 0 0 12.84 14.45q9.1 9 27.35 27.54a246.4 246.4 0 0 0 26.9 22.54 3 3 0 0 0-.39-1.35c-.57-7.26-.83-11.05-.83-11.43l-.64-23.17q-.84-17.53 13.87-88.61a357.2 357.2 0 0 1 33.83-88.79c9.18-17.59 17.14-32.1 23.76-43.4a82 82 0 0 1 4.62-8l.39.39c1.73-2.63 3.33-4.94 4.62-6.81l3.21-4.36a34.64 34.64 0 0 1 15.09-14.9 16.8 16.8 0 0 1 5.07-2.69v-.65h.72a13 13 0 0 1 4.3-.64 64.7 64.7 0 0 1 7.38-16.76 97 97 0 0 1 9.89-15.53A28.4 28.4 0 0 1 247.7.54a1 1 0 0 1 .77 0h.39a10.53 10.53 0 0 1 12 4 176 176 0 0 0 15.22 15.67c6.42 6.42 17.27 16.82 31.65 31.14a208.2 208.2 0 0 1 27 31.71 477 477 0 0 1-43-38.52q-4.62-4.81-12.84-12.84a22.3 22.3 0 0 1 2 4.69L292 52.5c2.05 3.08 3.85 5.91 5.33 8.41a.83.83 0 0 1 .58 0h.77c.38-.38 1.47 0 3.21 2.19a53 53 0 0 1 18.23 9.37c5.91 4.3 14.06 10.59 24.46 19.26A244 244 0 0 0 365 110.65c9.19 7.83 15.54 13.55 19.27 17.14q11.64 12.81 34.41 37c12.84 13.74 23.18 25.69 32.1 36.34A527.7 527.7 0 0 1 500 272.64q27.74 48.15 29.22 77a.88.88 0 0 1 .57-.51 266 266 0 0 1 24.66-19.9c3.79-2.64 12.2-2.57 25.23 0s21.45 6.42 24.53 10.91a79 79 0 0 1 6.38 10.86 24.3 24.3 0 0 1 1.86 9.44q.76 14-12.84 78.84-12.84 62-15.8 67.16c-2.95 5.13 0 0 0 .38a23.08 23.08 0 0 1-6.42 14.06c-1.47 3.66-3 7.64-4.55 12l1.15-.39a117.5 117.5 0 0 1 26.33-3.49v-.58l25.29-1.22c9.83.32 29 .32 57.79 0a25 25 0 0 1 2.31-1.67 10.6 10.6 0 0 0-.45 1.93h1a9 9 0 0 0 2.31 0l5.65-2.7a4.7 4.7 0 0 0 .51 1.54c0 3.85-3.15 9.37-9.89 16.69a27 27 0 0 0-1.67 3c-4.68 8.22-7.76 13.74-9.11 16.7a43.2 43.2 0 0 1-12.78 13.41c-3.72 3.15-9.5 7.77-17.4 14a227.6 227.6 0 0 1-37.69 25.3 190.1 190.1 0 0 1-83.46 26.71 142.4 142.4 0 0 1-53.36-7.32q-8.59-3.86-13.29-6.42c-3.59-.9-6.42-1.48-7.83-1.74-3.15.77-6.42 1.61-9.12 2.44l-8.67 3-19.84 5.58a108 108 0 0 1-11.3 5.07 1.1 1.1 0 0 1-.57 0 20.8 20.8 0 0 1-6 1.61 30 30 0 0 1-5 0c-2.18.58-3.91 1.16-5.26 1.6a28.2 28.2 0 0 1-9.18 5.53h-1.16a44 44 0 0 1-4.49 1.41M15.92 246.63v.37l1.67 2.18a14 14 0 0 0-1.35-2.57Zm-9.5 24.79c2.06 9.11 3.85 19.64 5.46 31.52q5.58 40.26 6.42 44.95l2.7 56.24a340 340 0 0 0 13.81 54.7c1.73 3.66 3.47 7.19 5.33 10.6a131.4 131.4 0 0 1-5.52-29.67 324 324 0 0 0-5.08-32.1c-3.91-19.26-6.42-29.73-6.42-32.1Q10.47 280.34 8.54 253.18c-.64 4.95-1.41 11.05-2.12 18.24m12.84-11.82c1.16 5.59 1.93 9.31 2.38 11.24a289 289 0 0 1 8.92 44.37q3.86 33.26 5.52 44.1 3.47 25.69 7.77 44.31 6.42 27.92 12.84 44.49a211.7 211.7 0 0 0 21.9 43.79 350 350 0 0 1 23.62 42.82 113.6 113.6 0 0 0 24.4 28.44 270 270 0 0 1-15.15-23.37 256.7 256.7 0 0 1-19.26-42.5Q88.8 488 74.93 454.4a411 411 0 0 1-17.15-43.21 401 401 0 0 1-9.56-43.08C45 348.85 42.5 334 40.58 324.19a244 244 0 0 0-22.09-67.73 26 26 0 0 1 .77 3.14m-11.68 53a119 119 0 0 0-1.16 20.41q0 5 1 21.77A258.8 258.8 0 0 0 20.22 422a185 185 0 0 1-4.49-19.58l-2.25-53.61q-3.72-23.27-5.9-36.17Zm77.62 8c3 4.3 6.42 9.38 9.57 15.09a305 305 0 0 1 17.72 33.45v-.58a137 137 0 0 1 1.86-26.51.86.86 0 0 1 0-.39 102.6 102.6 0 0 1-28.35-21ZM51.68 287a339.2 339.2 0 0 1 34.61 56q25.68 50.26 27.1 76.46A73 73 0 0 0 116 431a264 264 0 0 1-3.21-29v-18.93a239.6 239.6 0 0 0-18.49-40 282.3 282.3 0 0 0-29.4-42.82c-3.34-3.6-6.42-7-9.12-10.28s-4.62-5.78-6.74-8.54c.77 1.22 1.48 2.51 2.25 4 .07.5.22 1.02.39 1.57m15.16 42.82q7.77 31 24.27 94.25 6.74 26.78 13.67 46.87a333 333 0 0 0 21.38 47.39c2.57 4.67 6.84 12.09 12.84 22.3a229 229 0 0 1 12 24 69.7 69.7 0 0 0 21 21.83l21.83 16.69a244.6 244.6 0 0 1-30-41.09l-1.42-2.76a359 359 0 0 1-24.71-52.45 339 339 0 0 1-12.08-35.19 182.9 182.9 0 0 1-15.79-41.09 509 509 0 0 0-13.16-52 248.7 248.7 0 0 0-24.57-50.4c-2.63-4.17-5-8.09-7.19-11.74a38.5 38.5 0 0 1 1.93 13.35Zm-49.12-41.26c1.09 11.43 2.7 28.57 4.69 51.36q0 1 8.15 45.33c5.33 30.31 8 49.12 8.6 56.18A110.6 110.6 0 0 0 62.47 502a8.2 8.2 0 0 1-1.67-1.6c6.42 7.25 16 19.26 29.41 35.12a209 209 0 0 0 20.09 19.26 82.5 82.5 0 0 1-11.55-14.58c-3.21-4.94-7.32-12.45-12.46-22.53a151.6 151.6 0 0 0-11.88-21.13A200.8 200.8 0 0 1 52.13 453a322 322 0 0 1-12.84-44.11q-3.59-14.7-14-88.22a498 498 0 0 0-10.21-54.57c.97 6.9 1.92 14.31 2.64 22.46m249.82-262C274 42.14 277.94 50.68 279 52.22s4.94 10.53 13.42 27.35a128 128 0 0 1 7.25 17.53C298.3 84.71 297.46 74.37 297 66a349 349 0 0 1-23.37-30.95ZM265 47.47c-1.41-4.81-4.63-13.48-9.7-26.13-1.15-2.95-2.24-5.52-3.21-7.58l1.09 22.35a134 134 0 0 1 4.24 27.28 27 27 0 0 1-.32 3.47c5.14 4.62 10.79 9.89 16.89 15.73l.77 1-2.44-8.92Q267.15 54 265 47.47m40.83 33.32c4.11 8.48 7.71 16.89 10.85 25.36 1.67 3.47 5.2 10.21 10.6 20.1q6.74 12.72 10 20.35a569 569 0 0 0 43.15 80.58q10.65 17.08 64.2 92 35.9 50.07 43.85 63.62a135 135 0 0 1 11.24-9.31c-1.35-2.56-3-6.1-4.94-10.53-6.42-13.8-9.7-21.63-10.66-23.62s-5.07-9.06-11.17-19.78q-7.61-12.52-11.37-20a433 433 0 0 0-25-40q-24.58-34.69-27.72-39.63t-62.92-86q-30.74-41.7-41.42-60a40 40 0 0 0 .65 5.26 14 14 0 0 0 .7 1.6ZM317.36 83l9.06 12.84a244 244 0 0 0 14.44 20.23c8.8 11.3 13.87 18 15.22 20.09q31.59 42.57 56.31 79.62l48.15 74q37.17 59.46 44.94 79.68l6.43-5.39q-6.42-16-19.27-40.83a715 715 0 0 0-67.22-106.58l-56.24-74c-2.06-2.64-7.13-8.8-15-18.56-6.42-7.9-11.49-14.19-14.7-18.87a146.6 146.6 0 0 0-19.26-19.65c-1.22-1-2.05-1.93-2.83-2.51Zm-37 6.1a235 235 0 0 1 21.38 23.11q-.51-3.66-1-7.51-18.3-32.94-25.23-49.5-3.79-8.79-13.42-27.93a286 286 0 0 1 18.29 61.87Zm26.2 7.26a846.7 846.7 0 0 0 55.66 154.54 744.7 744.7 0 0 0 101.7 156.4 232 232 0 0 1 20.81-21.12q-8.61-11.43-40.2-56.25-44.94-63.56-67.28-97.85-10.66-16.68-42.51-78.07-19.26-37.56-28.18-58.43Zm4.49 38.07a15 15 0 0 0 0 2.31q22.8 75.43 43.92 139.58a581 581 0 0 0 33.19 79.36 310.2 310.2 0 0 0 35.32 51.36l20.86 25.3c5.46-7.45 10.4-13.8 14.77-19.26a20.5 20.5 0 0 1 1.8-2.44c-2.38-2.38-5.85-6.42-10.47-12.07q-10.4-12.84-19.9-24.79a468 468 0 0 1-27.35-39.67 645 645 0 0 1-42.76-80.58q-23.37-51.69-33-77-11.49-29.67-17.59-51.37c.4 2.89.85 5.84 1.23 9.31Zm-19.26-10.53c5.59 6.42 10.08 12.39 13.55 17.14-1-6.42-1.74-11.88-2.25-16.24q-24.89-27.7-41.26-44.91a301 301 0 0 0-21.32-21.57 88 88 0 0 1 6.87 8.28q7.45 10.22 20.35 30.24 8.36 8.47 24.21 27.1Zm-29.51-12.8a159 159 0 0 1-16.12-22.86 132.3 132.3 0 0 0-12.84-20.16c1.48 2.83 3 5.91 4.37 9.18q5.13 12.84 14.7 38.52c2.05 4 5.71 10.34 10.85 18.82a83 83 0 0 1 8.48 19.26c.38 1.28 2.24 7.7 5.65 19.26s5.13 17.46 5.13 19.13l4.56 3.28a178 178 0 0 1 14.7 11.47l8.16 4.69c2 1.6 3.85 3.08 5.65 4.36-.84-2-1.8-4.3-2.89-6.8a268 268 0 0 0-12.33-28.45c-10-18.68-17.53-34.15-22.73-46.54a115.2 115.2 0 0 0-15.21-23.12Zm4.36-9.57a108.6 108.6 0 0 1-11.94-14.77c-4.3-6.8-7.64-11.87-9.95-15.28a74 74 0 0 0-14.58-16.24c1.48 1.86 3.09 3.85 4.82 5.91a110.7 110.7 0 0 1 14.77 23.37 185 185 0 0 0 16.11 23 147.3 147.3 0 0 1 15.67 23.95q.39 1 23.3 47.13c3.92 7.87 7.26 15.4 10.16 22.4q-3.66-18.22-5.78-33.83c-1-6.42-1.86-12.84-2.76-18a141 141 0 0 0-12.84-18.24c-5.07-6.42-14.13-16.18-26.84-29.27Zm79.23.84c1.86 2.5 6.42 8.41 12.84 17.85A160 160 0 0 0 372.77 139q8.73 11.56 27.61 37.37c11.56 15.22 21.12 27.54 28.83 37a760 760 0 0 1 47.9 68.76q35.05 56.12 37.81 78.91l8.48-7.45a6.3 6.3 0 0 1 0-1.93c-3.85-7.32-8.16-15.28-12.84-23.88-9.89-18.49-17.21-31.65-22-39.36q-5.32-8.15-42.43-64.2-12.86-18.63-58.37-74.67-19.77-24.27-29.53-37c-4.33-3.25-8.31-6.78-12.36-10.18m-100-84.95a118.6 118.6 0 0 0-2.63 32.49 4.56 4.56 0 0 1-.9 3.85v1c3.79 2.89 7.9 6.42 12.26 10.33a73.5 73.5 0 0 1-4.17-20.48c0-3.72-.77-12.2-1.41-25.68 0-4.24-.45-8-.65-11.17-.73 2.66-1.5 5.88-2.53 9.66Zm-4.43 0-1.6 8.8a2.3 2.3 0 0 0 .38.83 5.5 5.5 0 0 0 .45-2.89 53 53 0 0 1 1.16-6.74ZM237.49 20c-1.47 2.18-3 4.5-4.62 7-3.15 5.07-6 9.89-8.73 14.38a11.7 11.7 0 0 1 4 2.83h.39c.7-1.74 1.6-3.86 2.69-6.42a80.6 80.6 0 0 0 5.2-13.94 33 33 0 0 1 1.16-3.78Zm1.61 10.08h-.39a30.5 30.5 0 0 1-4.11 10.08c-.83 1.67-1.92 3.6-3.27 5.91a102 102 0 0 1 8.67 6.41 2 2 0 0 0 0-1V48a44 44 0 0 0-.39-5.39V32.38a4.1 4.1 0 0 1-.51-2.24Zm-24.66 27.34a97.7 97.7 0 0 0-2.56 24.34 81.5 81.5 0 0 1-.88 17.52c-1 9.19-1.6 15.35-1.73 18.43 0 6.94-.45 19.26-.84 36.21 0 12.07 0 22-.45 29.79a184.5 184.5 0 0 1 24.14-15.66 77 77 0 0 1-.83-10.6c0-7.19-1.16-16.75-2.5-28.57-1.7-14.57-2.79-23.88-3.17-27.88s-2.38-12.84-6.42-28.7c-1.87-6.94-3.28-12.84-4.18-16.82a6.4 6.4 0 0 0-.58 1.94m-6 0q-12.33 27-12.32 28.57a261.5 261.5 0 0 1-3.54 34c-1.92 15.47-3.46 25.68-4.49 30.82s-1.93 17.14-3.72 35.05a129 129 0 0 1-3.15 22.8 194 194 0 0 1 22.15-20.94c0-4.62 0-13.8.77-27.48q1-23.88 1.16-25.68t0-13.48a114 114 0 0 1 .77-14.19c1-6.42 1.54-11.11 1.8-14.45a98 98 0 0 0 0-12.84 119 119 0 0 1 0-18.49 15 15 0 0 0 .6-3.69Zm19.65 27.16a255 255 0 0 1 2.5 14.9c.58 6.42 1.67 16 3.41 29.21 1.15 11.56 1.92 21.32 2.24 29.15a43 43 0 0 0 .52 7.9v.83a18.3 18.3 0 0 1 4.43-.45 12.86 12.86 0 0 1 10.08 4.75c5.78 3.34 11.75 7.26 17.91 11.69l8.35 6c-4.43-12.84-7.84-22.54-10.34-29.54a169.6 169.6 0 0 0-18.75-39.29 88.2 88.2 0 0 1-8.06-18.73Q236 87.34 234 80.79a129.7 129.7 0 0 0-9.24-18.3c-2.06-3.65-3.79-6.93-5.14-9.82a161 161 0 0 1 5.91 17.59c.51 2.89 1.41 7.64 2.63 14.06Zm-72 72.62c-1.61 6.42-3.66 15.86-6.42 29.08-1.35 5.91-3.54 15.15-6.42 27.8a177 177 0 0 0-5 28.51c-1 13.48-2 22.73-3 27.86a46 46 0 0 1-.7 4.82 67 67 0 0 1 4.88-8.35c3.91-6 7.57-11.62 11-16.63.51-4.75.84-7.64.84-8.66a196.3 196.3 0 0 1 5.07-50.15q3.33-16.69 12.84-49.88c3.79-15.8 7.25-29.28 10.4-40.33q-4.87 10-14.9 27.68a143.7 143.7 0 0 0-8.53 28.25Zm-9.44 0a205.5 205.5 0 0 0-13.23 37q-13.93 65.49-15.73 78.52a342 342 0 0 0-1.41 57.79c.9-4.63 2-9.44 3.27-14.39 1.74-6.42 3.47-12.19 5.33-17.59a2 2 0 0 1 0-1.15q0-3.86 7.51-48.48 8.3-46.8 12.85-65.17c2.69-12.52 4.68-22 6-28.31a130 130 0 0 1 4.5-15.86c-4.11 7.32-7.07 13.29-9.12 17.59Zm86.1 19.26-3.28 14.19a148.5 148.5 0 0 0-4.81 22.85c0 3.09-.45 9.44-.77 19.27-.45 7.89-.9 14.19-1.29 18.81l2.4 50.72q.83 16.36 12.2 92.65 10.72 74.22 13.87 86.22a315.9 315.9 0 0 0 36.78 87.71 267.6 267.6 0 0 0 31.66 43.85 148.2 148.2 0 0 0 43.79 32.87l3.08-1.47a81.6 81.6 0 0 1-13.87-12.84 181 181 0 0 1-17.46-22.48c-5.78-9.11-10-16.11-12.85-20.93a185 185 0 0 1-10.14-21.12c-1-2.83-6.42-16.82-16.76-41.86a350 350 0 0 1-15-42.44q-16.44-64.84-21.06-85.2a712 712 0 0 1-14.19-84.94L243 270.26c-1.93-12.84-3.21-22.08-3.86-26.9-1.15-8.48-1.92-16.76-2.37-24.72-.32-6.42-.39-14.38 0-23.88s0-16 .38-20a22.2 22.2 0 0 0-4.36 1.41Zm-13.68 7.32-1.73 1.28c-.9 3.85-3.08 12.33-6.42 25.68a392 392 0 0 0-8.86 41 397.7 397.7 0 0 0-1.93 67.35A771 771 0 0 0 213 411.71a648 648 0 0 0 16.69 75.89A406.8 406.8 0 0 0 284.3 593q41.34 57.78 68.12 55.67l.39.38c2.31-.83 4.49-1.54 6.42-2.12-4.56-2.44-10.21-5.91-16.89-10.34A167.7 167.7 0 0 1 316 616.45a309.4 309.4 0 0 1-30-41.92 314.3 314.3 0 0 1-37.43-84.24 840 840 0 0 1-14.9-86.16Q222.21 318 222.21 317.9l-2.63-48.6a450 450 0 0 1 .84-55.47 109.9 109.9 0 0 1 6.42-34.67 67 67 0 0 0-7.71 4.3Zm19.9-9.25 3.73 58.11c1 4.88 2.05 10.85 3 17.78.71 4.24 1.54 10.47 2.57 18.56l2.12 41.92a744 744 0 0 0 14.51 85.2c3.66 15.86 10.79 44.18 21.32 84.75a368 368 0 0 0 14.58 42.25c3.85 9.5 9.57 23.5 17.27 42a171 171 0 0 0 40.32 63.7A112.6 112.6 0 0 0 373 641.17l2.57-1.09q0-.76-24-45.33a413.3 413.3 0 0 1-32.1-70.62q-6.42-22-14.32-58.36-9.63-44.4-12.84-58.37-5.85-23.49-11.56-58.49c-6.42-38.07-9.5-57.78-9.76-58.49-4.17-24.4-8.09-44-11.75-58.87-.57-2.57-1.86-7.19-3.85-13.81a109 109 0 0 1-4.17-15.15 123 123 0 0 0-6-16.76 116 116 0 0 1-4.11-11.68H239Zm5.78 1.35c1 2.06 2.31 5.07 4.18 9a256 256 0 0 1 13.8 41.8q4.81 19.71 11.81 59.26 1.35 7.13 9.83 59.64 6.09 36.54 11.62 59.46c2.5 9.44 7.13 29.21 13.67 59.32q8.16 37.56 14.71 59.52a441 441 0 0 0 31.71 70.63c12.85 23.82 20.16 38.52 23 44.17a116 116 0 0 0 1.4-13.68c0-3.85-.52-7.7-.64-11.55a238 238 0 0 0-10.66-24.79q-12-23.94-12.84-26.32c-9.25-27-15.16-44.94-17.72-54.64a1026 1026 0 0 1-24-110.37q-7.5-73.38-15.34-110.24a267.3 267.3 0 0 0-44.58-104.53 79.5 79.5 0 0 1-7.77-6.42Zm-60.16-45.65a365.8 365.8 0 0 1 18.69-73.77 287 287 0 0 0-19.59 49.89q-5.49 18.78-12.84 50-6.42 27.34-16 87.57c9.24-13.61 16.56-23.62 21.83-30a1.1 1.1 0 0 0 .45 0s-.39-.45-.39-.58a61 61 0 0 0 .83-9.25 211.5 211.5 0 0 1 2.12-37q4.75-33.39 4.88-37.05Zm19.26 74.29a350 350 0 0 0-13.48 32.68 122 122 0 0 0-4.82 21.8c-1 5.27-2.31 12.84-3.91 23.05q-1.35 7.58-2.32 41.16t-.57 47.7a402.7 402.7 0 0 0 11.3 74.93 315.7 315.7 0 0 0 25.68 71.78q3.66 6.42 17.08 35.76a290.5 290.5 0 0 0 19.26 36.53 180.3 180.3 0 0 0 74.8 65.09 83 83 0 0 0 9.88-1.86q-14.31-3.46-37.43-32.1l-33.45-47.39a325.5 325.5 0 0 1-41.35-83.46 676 676 0 0 1-17.27-77.56 813 813 0 0 1-12.32-93.36 400 400 0 0 1 1.79-69.14q4.5-23.11 6.94-35.19a163.6 163.6 0 0 1 6.87-23.88l-1.61 1.47c-.45 1.16-2.31 5.2-5.2 11.63Zm-12.07 5.26c-1.22 2.18-2.56 4.69-3.91 7.58a138.4 138.4 0 0 0-12.39 28.76 424 424 0 0 0-9 46.16 466 466 0 0 0-6.42 92.65 291.4 291.4 0 0 0 14.44 69.41q3 9.82 23.63 68.82 38.52 108.26 71.27 127.07a118 118 0 0 0 15.8 3.77h.58a146 146 0 0 0 29 2.18q-13.94-5-34.93-26.26a284.7 284.7 0 0 1-33.13-38.52 267 267 0 0 1-19.26-36c-8.35-19.26-13.93-31.27-16.89-36.53a281.4 281.4 0 0 1-25.68-71.59 424 424 0 0 1-11.56-75.89c-.51-8.86 0-25.23.65-49.12s1.79-36.66 2.56-41.15q7.26-38.15 9.38-45.72A124.5 124.5 0 0 1 202 199.19c-3.73 3.46-7.19 6.93-10.34 10.27ZM176.05 228c-4.88 6.42-9.5 12.19-13.8 18.1a187 187 0 0 0-8.8 17.66q-1.74 6.93-5.78 21c-2.31 8.16-3.72 14.19-4.36 18a191 191 0 0 1-3.66 19.24 94 94 0 0 0-2.65 19.27v38a210.5 210.5 0 0 0 11.82 59.26q19.26 56.24 22.53 66.51a505.8 505.8 0 0 0 55.28 122c1.87 1.22 4.05 2.76 6.42 4.63a38.6 38.6 0 0 0 10 6.42 1 1 0 0 0-.77 0 110 110 0 0 0 15 7.7 84.2 84.2 0 0 1-17-17.59 333 333 0 0 1-20.48-36.4 309 309 0 0 1-15-34.16q-8.22-22.92-12.33-34.42-16.81-44.94-23.82-68.89a319 319 0 0 1-12.45-69.4 493.7 493.7 0 0 1 6.74-100.55 313 313 0 0 1 14.19-58.1 11.3 11.3 0 0 0-1.22 1.47Zm-37.88 64.65a175 175 0 0 0-3.34 20.35l-.64 9.44a163 163 0 0 1 4.3-21.89c3.08-12.84 5.91-23.5 8.6-31.53-2.18 3.4-4.11 6.81-5.9 10.27-.71 2.85-1.67 7.41-3.02 13.38Zm-8.67 14.77a238 238 0 0 0-7 34.67 333 333 0 0 0-2.82 59.45l2.69 27.8q1.68 30.5 28.32 92.71c5.91 13.94 11.62 26.2 17.08 36.92 4 6.1 8.09 11.88 12 17.27a419 419 0 0 1-22.85-48.6q-27.87-70-30.18-117.82a677 677 0 0 1 .64-76.34c1.03-9.74 1.35-18.48 2.12-26.04Zm167.32-93.23a32 32 0 0 1-2.63-2q-3-2.57-6-5c1.22 2 2.5 4.18 3.85 6.42a66 66 0 0 1 5.2 11.88c2.31 5.33 4.24 9.44 5.84 12.33a105.4 105.4 0 0 1 11.49 24.27c1.29 4 3.73 12.33 7.19 24.85 3.86 13.86 7.58 30 11.11 48.47q1.89 10.59 8.25 49.59 3.47 20.28 7.83 49.69 2.44 16.24 7.45 49.76a436 436 0 0 0 16.6 57.08c3.79 11.3 6.42 20.22 8.86 26.84a13.4 13.4 0 0 1 .45-3.28 27 27 0 0 1-1.41-9.44v-12.52a561.4 561.4 0 0 0-13.49-86.55q-5.8-25.68-20.41-81.47-3.86-14.7-8.8-42.25-5.39-28.58-8.67-41.6c-1.92-9.31-3.46-16.44-4.75-21.38a75.1 75.1 0 0 0-7.89-20.42q-7.71-13.68-11.75-20.35c-3.38-5.78-6.07-10.73-8.32-14.9Zm-25.17-14q5 8.74 14.77 28.51a316 316 0 0 1 16.11 55.15q10 51.88 15.93 111.08a452 452 0 0 0 10.33 55.34q2.44 10.08 15 55.35c1.79 7.25 4.62 16.5 8.41 27.8l9.24 27.22q.58 1.74 12.84 27.74c2.32 4.56 4.18 8.54 5.65 12.07 0-6.42.33-12.84.9-19.26-1.86-6.42-6.1-18.82-12.84-37.76a538 538 0 0 1-16.76-55q-2.94-15.93-7.64-48.92t-7.83-49c-3.79-21.38-6.42-37.69-8.41-48.73-3.47-19.27-6.42-35.77-10-48.86a189.7 189.7 0 0 0-16.88-48.41q-1.49-3.35-15.35-29a184 184 0 0 1-9.04-17.51c-3.27-2.05-6.42-4.3-10-6.87 1.85 2.79 3.58 5.81 5.57 9.08Zm43.66 35.32A173 173 0 0 1 335 286.18q2.44 10.27 7.13 40.45c2.89 17 5.71 30.63 8.47 40.71q10.72 36.8 19.84 75.31a547 547 0 0 1 14.77 85.2c.38 8.09.71 14 .83 17.72a13.4 13.4 0 0 1 .65-3.27 212 212 0 0 1 6.42-21.19 4.7 4.7 0 0 0-1 1 16.4 16.4 0 0 1-.64-3.34 32.7 32.7 0 0 1 1-7.44 37.3 37.3 0 0 0 .83-7.52q-1.61-28.5-20.09-95.15-12.84-45.84-17.27-62.72a791 791 0 0 1-24.59-76.6c-1.61-5.78-3.08-11.49-4.3-17.08-5.05-6.85-8.91-12.43-11.74-16.73Zm55.22 131c2.37 5.2 10.4 22.15 23.94 51a272 272 0 0 0 19.27 30.75c4.23 6.42 7.38 10.79 9.63 13.93l3.21-4.88c5.33-8 10-14.7 15-21.12-6-1.48-15.22-11-27.68-28.76a416 416 0 0 1-29.27-48.28A653 653 0 0 1 352 281q-13.86-41-24.53-75.18-7.69-22.92-12.84-40.19a1001 1001 0 0 0 21.51 97.85c6.42 23.17 11.37 40.51 14.83 51.87a496 496 0 0 0 19.56 51.22Zm188.05-33.01c.45 6.42 1.22 12.84 2.25 20.48 1 6 2.44 13.49 4.24 22.22 1 5.07 2.57 12.84 4.75 22.34q9.95 47.83 9.95 48.22a309 309 0 0 1 3.4 35.76c1.61-6.93 3.53-15.47 5.78-25.68 0-2.18.64-4.69 1-7.64a121.6 121.6 0 0 0 1-21.57 151.3 151.3 0 0 0-16.63-64.78c-5.07-8.16-8.47-14-10.33-17.66a32.5 32.5 0 0 1-4.43-11.88Zm-4.88 15.41a139 139 0 0 0-1.54 17.27l.77 33.13q.65 11.37 3.28 41c1.73 19.64 2.76 32.48 2.95 38.52a312.3 312.3 0 0 1-.51 51.36 101.3 101.3 0 0 1-8.22 32.49 113.2 113.2 0 0 0 16.31-25.17 3.1 3.1 0 0 1 0-1 2.73 2.73 0 0 1 1.6-2.25 303 303 0 0 0 10.6-32.61v-2A560.7 560.7 0 0 0 566.09 404c-7.44-32.1-11.23-49.82-11.36-54.06V348a1.31 1.31 0 0 1-.9.65ZM539.32 382a188 188 0 0 0-2.76 22.66c-.45 5.4-1 12.84-1.86 23.44l2.5 49.18v30.22a139 139 0 0 1-2.57 30 129.3 129.3 0 0 0-1.73 30.5 34.46 34.46 0 0 1-9.57 18.82 131 131 0 0 0 18.3-15.09 9.6 9.6 0 0 1 1.41-1.29 141.8 141.8 0 0 0 10.47-42.31 325.4 325.4 0 0 0 .77-48.47c-.45-9.31-1.48-22.6-3.08-40s-2.57-30.5-3.08-40.13a409 409 0 0 1 0-47c-.24.5-.46 1-.65 1.54a190.4 190.4 0 0 0-8.15 27.93m-9.63-20.1a146.7 146.7 0 0 0-22.92 54.58 263 263 0 0 0-5.07 34.35c-.84 8-1.93 19.64-3.28 35.18-.77 7.26-2.44 19.26-5.07 35.31-2.5 15-4.11 26.78-4.88 35.12s-1.93 20.36-4.24 34.93a71.3 71.3 0 0 1-4.36 17.79 9 9 0 0 1-.64 1.28c2.24-1.09 4.43-2.06 6.42-2.89a69.06 69.06 0 0 0 18.81-31.2q4.23-24.15 6.42-35.12a249 249 0 0 0 3.72-34.35q0-22.16.58-33.9a317.3 317.3 0 0 1 7.32-79.17 165 165 0 0 1 12.84-38.52 79 79 0 0 1-5.78 6.61Zm5.33 9.76a204 204 0 0 0-9.57 36.15 320 320 0 0 0-3.27 34.19q-.9 11.55-1.54 34.28c-.71 19.71-1.16 31.08-1.35 34a270 270 0 0 1-4.11 34.72c-.58 3.34-1.41 9-2.38 16.89a80 80 0 0 1-4.75 17.4c-1.28 3.6-3.14 9.44-5.71 17.59a20.5 20.5 0 0 1-2.83 4.3 109 109 0 0 0 12.14-6.42 46.67 46.67 0 0 0 14.19-28.82 130.5 130.5 0 0 1 3.72-29.94q1.35-40.26 2.12-58.88l-2.44-49.76c1.22-21.31 2.63-37.37 4.24-48.28.45-2.5.9-5 1.41-7.45Zm33.64-38.14a49.8 49.8 0 0 1 23 19.27 75.5 75.5 0 0 1 12.84 24.65 102.7 102.7 0 0 0 1.86-17.66 21.1 21.1 0 0 0-2.82-9.31c-2.7-3.78-5-7.06-6.87-9.82a18.35 18.35 0 0 0-9.12-4.49c-4-.84-8-1.54-11.88-2.06a42 42 0 0 1-7.01-.6ZM581.82 367a86.24 86.24 0 0 1 12.85 43.14 153 153 0 0 1 0 17.92c2.11-10.34 3.91-19.59 5.45-27.61a6.3 6.3 0 0 1 0-1.93 104 104 0 0 0 1.09-11.3 58.3 58.3 0 0 0-12.84-28.7 87.2 87.2 0 0 0-23.17-24.33 73 73 0 0 1 6.42 11.3c2.44 4.75 5.71 11.94 10.2 21.7ZM382.15 135.37q89.18 105.93 136.63 200-27.78-96.12-136.63-200m204.94 402.82a99.6 99.6 0 0 0 22.86 2 200.7 200.7 0 0 0 38.05-5.66 148 148 0 0 1-22.47-1.41l-25.68 1.22c-6.87 1.6-12.52 2.69-17 3.34.96.06 2.51.25 4.24.51m-17 .32c-.39 1.16-.77 2.25-1 3.21-1 2.31-2 4.62-3.08 6.87a106 106 0 0 1 10.91 1.86 116 116 0 0 0 18.82 2.83l20.22-1q38.52-5.19 52.2-12.84a40.7 40.7 0 0 0 7.32-6.42l-8.73.52c-11.3 6.42-30.24 9.95-56.76 11.3a111.6 111.6 0 0 1-25.68-1.35 27.35 27.35 0 0 1-12.84-5Zm6 28.7 19.84-1a313 313 0 0 0 59.84-11.94 73 73 0 0 0 13.35-7.32c1.54-2 3.73-4.56 6.42-7.7a99 99 0 0 1-12.32 6.42 122.1 122.1 0 0 1-46.87 11.3L596 558.22a106.3 106.3 0 0 1-25.15-3.22l-6.43-2.7a102.6 102.6 0 0 1-8.08 12.33l7.44 1.35a74 74 0 0 0 12.33 1.23ZM559 570a30 30 0 0 1-5.33-2.44 86.6 86.6 0 0 1-11.49 12.33c-.83.9-1.67 1.8-2.57 2.63a3.1 3.1 0 0 1 1.35 0 70 70 0 0 1 11.17 1.41l19.65-.77c36-9.37 58.17-15.47 66.64-18.36 3.6-1.16 7.13-2.5 10.47-3.92a425 425 0 0 1-52.65 10.6l-19.9 1A75.9 75.9 0 0 1 559 570m82.12-.51q-16.56 6-68.57 19.26l-19.9 1c-4.31-.9-9.64-1.73-15.86-2.57h-2.31a158 158 0 0 1-15.16 9.63c2.44.45 5.46.9 9.06 1.22a141 141 0 0 0 21.12 2.19c27.61-1.42 49.37-6.42 65.1-14.32a87.6 87.6 0 0 0 14.58-9.25 62.4 62.4 0 0 1 10.21-6.42l-.58.71Zm25.68-10.85a307 307 0 0 1-35.38 25.68q-72.87 44.55-144.71 48.34h-4.63a137.3 137.3 0 0 0 40.2 3.47 187.2 187.2 0 0 0 71.1-20.13 172.1 172.1 0 0 0 51.37-34.16q9.3-9.51 14.06-14.64a106 106 0 0 0 7.83-8.6ZM500.41 391.67a281 281 0 0 0-22.73 39.43q-2.18 4.68-26.19 66.64a130.4 130.4 0 0 0-7.83 33.32c-.77 8.28-1.1 19.26-1 32.49a192 192 0 0 1-3.46 33.64 78.4 78.4 0 0 1-8.35 28.45 14.5 14.5 0 0 0 3.72-.9c2.12-2.31 3.53-2.7 4.24-1a2.5 2.5 0 0 1 1.16 0 48.2 48.2 0 0 0 17.27-30.11 204 204 0 0 1 3-35.57 344 344 0 0 0 5.59-34.93c0-1.48 1.22-13.29 3.14-35.31a249.3 249.3 0 0 1 26.58-86.74 94 94 0 0 1 4.69-9.18ZM406.61 452l-4.43-7.64a148.5 148.5 0 0 1 5.2 33.84c0 5 .39 8 0 8.73a6.9 6.9 0 0 0-.83 1.67h.57a10.2 10.2 0 0 0 1.61-2.63 38 38 0 0 1 1.54-5.53 30.1 30.1 0 0 0 1.22-8.86c-1-5.65-1.54-9.05-1.67-10.2a4.9 4.9 0 0 0-.83-2.57 7 7 0 0 1-1.29-2.7 4.7 4.7 0 0 1 .45-1.73 26 26 0 0 1-1.54-2.38m10.79 19.26a.53.53 0 0 0 0 .39 15 15 0 0 1 1.6-3 26 26 0 0 1-3.15-3.21 19.3 19.3 0 0 1 1.48 5.78Zm8.54-1a2.33 2.33 0 0 1-1.61 1c-3.21 5.4-6.42 11-9.31 16.7-1.35 2.63-2.76 5.2-4.11 7.57a273.14 273.14 0 0 0-24.08 136v3.73l8.54-1.87a1.23 1.23 0 0 0 .58-.57 24.1 24.1 0 0 0 4.24-6.42 10.7 10.7 0 0 0 .64-1.74 164 164 0 0 1 .9-17.85c1.09-7.44 1.86-12.84 2.38-16.69a122.5 122.5 0 0 1 3.59-18c2.12-7.19 5.59-18.62 10.4-34.41s8-26.84 10.27-34.74A401 401 0 0 1 458 433a148 148 0 0 1 14.9-23.11 468.5 468.5 0 0 0-46.29 57.78s.38.45 0 .58a1.94 1.94 0 0 1-.64 1.93Zm-3.41 70.24q-7.83 23.31-10.59 34.5c-.58 2.7-2 11.43-4.24 26.33l-.58 13.67a31.36 31.36 0 0 1-2.63 13.87c-.45 1.28-.83 2.44-1.28 3.4 7-1.41 13.74-3 20.16-4.43v-.58a99.8 99.8 0 0 0 8.22-19.26 125.6 125.6 0 0 0 6.41-47.21 162 162 0 0 1 8.92-65.49 670 670 0 0 1 25.68-67.86A186.3 186.3 0 0 1 497.84 387a290.6 290.6 0 0 0-37.23 49.56 272.6 272.6 0 0 0-28 69.15q-2.88 11.69-10.08 34.74Zm42.25 19.26c-3.21 27.35-5 41.73-5.27 43a40.5 40.5 0 0 1-6.42 16.56l10.53-3.21a42.24 42.24 0 0 0 17.72-28.76 158.4 158.4 0 0 1 2.57-35.35 270 270 0 0 0 6-34.48c2.12-21.76 3.4-33.64 3.66-35.5a514 514 0 0 1 8.15-69.73A136.5 136.5 0 0 1 514.6 378a200.5 200.5 0 0 0-23.75 42.05A293.2 293.2 0 0 0 474 490.1Zm54.38 58.56a52.9 52.9 0 0 1-27.54-6.94q-14.26 5.77-31.34 11.82l6.43 1.34a86.4 86.4 0 0 0 20.35 2.12 238.2 238.2 0 0 0 50.72-9.18 88 88 0 0 1-18.62.84m7.32-15.16a68.4 68.4 0 0 1-12-3.21 190 190 0 0 1-18.17 9.12 89 89 0 0 0 10.92 2.83 125.5 125.5 0 0 0 21.89 2 137.6 137.6 0 0 0 19.26 0c6.42-1.87 13.23-4.11 20.36-6.42 9-3.09 17-6.42 24.2-9.12a204 204 0 0 1-42.94 6.41 101.7 101.7 0 0 1-23.52-1.61M385.23 413.57a1.14 1.14 0 0 1 0-.52q-5.58-12.84-18.49-40.83 9.94 31.45 11.36 35.18 19.2 64.73 20.36 86.62v4.49a27.3 27.3 0 0 1 1.86-4.43 2.84 2.84 0 0 1-.52-1.73 46.6 46.6 0 0 0 1.54-14.19 166.2 166.2 0 0 0-8.6-43.41 176 176 0 0 1-7.51-21.18M131.3 372c0 14.38 0 26.77.45 37.24q2.31 47.19 29.66 115.05a360.8 360.8 0 0 0 46.68 85.91c3.27 3.4 6.42 6.42 9.95 9.69l4.3 3.21a367.5 367.5 0 0 1-56.88-117.75q-1.43-4.5-22.6-66.52A220.7 220.7 0 0 1 131.49 379c-.08-2.22-.15-4.53-.19-7m56.31 239.54c-1.54 0-8.74 0-21.7-1.22a205 205 0 0 0-24.66-.77l-34.48 1.55c-.64 0-6.8.44-18.55 1H87c3.91 0 9.76.38 17.4.9q24.78 1.1 38.52 2.24a192 192 0 0 0 42.44 4.88 185 185 0 0 1 22.28 1.8L190 611.77Zm4.81 46.94a59 59 0 0 0-5.84 4c-2.5 1.87-6 4.63-10.66 8.35a166.2 166.2 0 0 0-32.1 34.73 184.4 184.4 0 0 0-17.46 32.11c2.18-3.08 4.55-6.42 7.25-9.83 8.67-11.42 17.4-22.15 26.32-32.1A335.4 335.4 0 0 1 207 659.21a177.2 177.2 0 0 1 30.75-18.55 7.4 7.4 0 0 1-1.86-1c1.73-1.6-2.12-.9-11.43 2.19a78.4 78.4 0 0 0-22.86 10.33l-6.87 4.63a22 22 0 0 0-1.73 1.47ZM228 634.11l-7.51-5.26-1.93-.84q-57.78-5.13-75.24-8.28c-2.32-.45-13.36-1.67-33.26-3.66q-21.06-2.51-27.62-3.66h-.58c2.31.45 4.94 1.09 7.83 1.8 8.35 1.92 19.27 4.43 32.11 7.64a219 219 0 0 1 30 7.64 259.7 259.7 0 0 0 50.47 5.84H225a18 18 0 0 0 3-1Zm-11.5 24.46a236.7 236.7 0 0 0-53.74 41.48 229 229 0 0 0-25.17 32.1q-5.33 7.46-19.26 29.15c-.45 1.73-1 3.53-1.54 5.33a17 17 0 0 0 2.18-1.48h-.38a164.4 164.4 0 0 1 28.25-31c2.5-2.37 14.64-12.84 36.53-30.88q25.42-21.68 37.88-32.1a360 360 0 0 1 29.86-23l-8.93-4.69q-5.84 3.8-25.68 15.35Zm-13.87-19.26a497 497 0 0 1-79.81-10.91q-32.1-9.06-54.31-13.87a9 9 0 0 0 1.73 1.35 180 180 0 0 1 22.41 8.92q9.18 3.91 28 12.84a206.2 206.2 0 0 0 65.55 18.56 176.5 176.5 0 0 1 28.19-17.27Zm39.61 37a168.5 168.5 0 0 0 17.28-24.72c-2.32-1-4.56-2-6.87-3.14q-20.24 20.36-65.43 58.3-52.84 44.49-67.09 57.78c10.59-7.06 24.2-16 41-27 18.75-11.94 33.9-21.95 45.59-30.11a191.5 191.5 0 0 0 35.52-31.13Zm-70-9.31c3-2.63 6-5.07 9.05-7.25q-25.68 0-66.52-19.26c-14.51-7.19-25.68-12.84-34.15-17.15l22.6 17.6a220 220 0 0 0 26.9 17.33 88.46 88.46 0 0 0 37.75 11.88Zm60 61.83 12.83-5.83q1.35-.65 35.44-26.9h-.38a76 76 0 0 0 10.14-9.44 104 104 0 0 0 9.57-11.24l7.16-13.51-9.24-1a95.3 95.3 0 0 1-17.34 21.44q-11.78 12.18-21.42 20.59-3 3.07-24.59 23.56a8.3 8.3 0 0 1-2.18 2.31Zm-4.75-14.44a216.7 216.7 0 0 0 34.8-32.68c.45-.65 4.68-7.07 12.84-19.26 1.35-1.93 2.44-3.41 3.4-4.56-5.2-1.42-10.27-3.09-15.09-4.88q-2.31 20.41-57.4 60.41a619.7 619.7 0 0 1-88.6 54.45l-1-.39a.83.83 0 0 1 0 .58.65.65 0 0 1 0 .39 245 245 0 0 1 28.63-11.17c20.1-6.75 30.82-10.47 32.11-11A174.3 174.3 0 0 0 205 731.57q5.91-4.36 22.48-17.2Zm3.79 7.44q9.89-9.75 25.68-23.3c8.79-7.39 13.42-11.17 13.8-11.37a81.3 81.3 0 0 0 11.75-12c4.17-6.42 7.32-11.56 9.5-14.58-3.21-.51-6.42-1.09-9.24-1.79-2.89 8.47-20.74 28.5-53.48 59.9a254 254 0 0 1-48.09 30.43 245.7 245.7 0 0 1-62.22 20h10.21q20.22-4.3 77-28.44c2.5-1.48 5.45-3.47 8.86-5.91a107.7 107.7 0 0 0 16-12.91Zm90.91-60h-9.63a45.4 45.4 0 0 1-12.46 18.43q-3 2.76-5.39 5.39c9.25-7.19 19.65-15.15 31.33-24a25 25 0 0 1-3.86.13Zm17-2.18a388 388 0 0 1-39 32.1q-38.52 28.89-51.94 37.82a1125 1125 0 0 1-104.66 42.05 116.6 116.6 0 0 0 17.53 0l5.78-.64a24.6 24.6 0 0 0 5.46-.77l49.56-2.82q55.8-18.5 85.07-52.46a176.4 176.4 0 0 0 20.1-29.47c6.42-11.81 11-20.67 14.45-26.77Z"/></svg>