<svg xmlns="http://www.w3.org/2000/svg" viewBox="0 0 790.93 586.75"><path fill="currentColor" d="M455.39 246.1a57.9 57.9 0 0 0-17.05-4c-3.08-.31-6.17-.5-9.25-.76-3.78-.33-9-.07-11.73-3l-.16-.13a1 1 0 0 0 .47-1.33 1.2 1.2 0 0 0-.27-.35A77.2 77.2 0 0 1 398.56 214c-5.28-9.64-8.24-20.34-11.9-30.65-7.36-20.7-16.16-40.86-24.93-61-.59-1.33-2.54-.18-2 1.15 9.28 21.27 18.56 42.57 26.13 64.53 3.3 9.57 6.27 19.34 11.31 28.19a78.8 78.8 0 0 0 18.59 21.9.5.5 0 0 0 .14.1 1.13 1.13 0 0 0-.3 1.57.8.8 0 0 0 .12.14c3.73 4 10.95 3.51 16 3.91 7.67.6 15.37 1.18 22.52 4.23 1.34.56 2.49-1.4 1.15-1.97m-50.61-7.59a40 40 0 0 1-5.48.25c-2-.79-4-1.62-6-2.54-16-11.46-26.59-29-37.05-45.36-6.68-10.46-13.27-21-19.06-32-5.38-10.18-9.79-20.19-17.81-28.66-9.69-10.23-20.56-19.48-30.89-29.07-1.06-1-2.67.6-1.6 1.6 9.41 8.74 19.06 17.28 28.18 26.32a72.5 72.5 0 0 1 11.56 14.21c3.08 5.2 5.47 10.78 8.27 16.12 5.77 11 12.34 21.54 19 32 5.9 9.25 11.73 18.58 18.48 27.24a110 110 0 0 0 11.19 12.45A103 103 0 0 1 365 217c-9.79-9.35-17.55-20.51-24.74-31.91-7.07-11.22-13.64-22.76-21.32-33.59a163.8 163.8 0 0 0-28.31-30.78c-1.11-.93-2.72.67-1.6 1.61 17.67 14.83 30.37 33.09 42.31 52.61 11 18 22.18 36.2 38.7 49.6A107 107 0 0 0 391.56 238c-16.49-3.46-29.95-16.47-41.24-28.77-15.37-16.78-30.21-34.16-46.56-50-1.05-1-2.65.58-1.6 1.6 17.34 16.72 32.82 35.29 49.28 52.89 12 12.85 26.9 25.63 44.77 27.23.88.54 1.76 1.07 2.67 1.57a1.14 1.14 0 0 0 1.55-.47 1.2 1.2 0 0 0 .14-.46 1 1 0 0 0 .62-.49 31 31 0 0 0 3.59-.25c1.43-.21 1.44-2.47 0-2.34m-24.22 1.78c-45.44-12.6-76.06-50.78-106.27-84.41a410 410 0 0 0-29-29.66c-1.08-1-2.69.62-1.61 1.61 34 30.84 59.54 71 98 96.71-1.38-.74-2.76-1.47-4.13-2.23-10.73-5.91-19.9-13.52-29.23-21.38a468.6 468.6 0 0 0-56-40.41c-1.25-.76-2.39 1.2-1.15 2a467 467 0 0 1 57.7 41.86c8.75 7.42 17.49 14.38 27.57 19.93 10.87 6 22 11.58 33 17.35 1.29.67 2.43-1.28 1.14-2l-1.42-.74q5.28 2 10.78 3.56a1.14 1.14 0 0 0 .62-2.19m-2.6 2.65a216 216 0 0 1-26.52-1.34.9.9 0 0 0-.43-1.18h-.09q-24.9-10.59-49.23-22.44c-7.79-3.8-15.71-7.51-23-12.15-7-4.46-13.23-10.09-20.26-14.56-13.22-8.39-26.51-16.37-39.27-25.47-12.38-8.84-24.6-17.93-37.46-26.08-14.33-9.08-29.49-16.87-45.85-21.58a1.13 1.13 0 0 0-.6 2.18c29.61 8.53 54.51 27.16 79.19 44.88 12.62 9 25.45 17.53 38.76 25.52 7 4.2 13.24 9.23 19.83 14 2.49 1.8 5.08 3.45 7.73 5-47.83-25.25-93.55-56.46-148.49-61.34A165.7 165.7 0 0 0 72 154.23a1.13 1.13 0 1 0 .6 2.18c35.07-10 71.23-7.44 105.45 4.55 33.28 11.66 63.45 30.22 94.34 46.91 17 9.19 34.32 17.8 52.46 24.53a.92.92 0 0 0 1.22-.47q10.32 4.69 20.75 9.16c-8.87-1.12-17.7-2.65-26.47-4.41-17.55-3.53-35.42-7.33-51.13-16.25a1.15 1.15 0 0 0-1.57.43 1.14 1.14 0 0 0 .43 1.57c15.89 9 33.91 12.91 51.66 16.47 19.18 3.85 38.62 6.66 58.22 6.38a1.16 1.16 0 0 0 0-2.31Zm36.54-4c-6.19-4.8-10.69-11.16-15.17-17.49q-7.4-10.43-14.28-21.2-13.56-21.22-25.11-43.65c-.67-1.3-2.62-.15-1.95 1.14q11.91 23 25.91 44.85 6.92 10.76 14.33 21.16c4.07 5.71 8.21 11.39 13.62 15.89-10 3-20 6-29.77 9.77.36-.7.06-1.74-.94-1.66Q322.28 252.41 264 262c-1.43.24-.82 2.42.61 2.18q57.56-9.47 115.77-14.07a141.4 141.4 0 0 0-24.56 12.32c-1.22.79-.08 2.75 1.15 2 17-10.94 36.41-16.85 55.64-22.58a1 1 0 0 0 .79-1c1.03.24 2.15-1.09 1.1-1.85Zm314.15-51.56c-48.29-9.55-98.06-3.33-144.78 10.88-13.55 4.12-26.89 8.92-40 14.22-1.33.54-.75 2.73.6 2.18 45-18.16 93.26-30.73 142.13-29.61a242 242 0 0 1 41.47 4.52c1.43.32 2.01-1.87.58-2.15Zm-42.9-25.56c-7.24.82-14.46 1.86-21.65 3.17-21.6 4.01-42.49 10.72-63.1 18.27 45.77-22.14 92.16-44.6 142.53-53.48 1.42-.25.83-2.43-.6-2.18-56 9.87-107.14 36.51-157.92 60.85a1 1 0 0 0-.56 1l-1.22.47c-13.6 5.21-27 11.15-38.78 19.76-1.17.85 0 2.82 1.15 2 10.58-7.71 22.4-13.3 34.54-18.1 12.52-5 25.22-9.56 38-13.92a325.5 325.5 0 0 1 68-15.52 6.1 6.1 0 0 1-.39-2.28Zm-20.53-39.15c-60.79 21.63-109.22 66.5-167.79 92.61a216 216 0 0 1-52.6 16.23c-1.43.24-.83 2.42.6 2.19 64.08-10.61 115-53.77 169.85-85.07a318.5 318.5 0 0 1 50.54-23.78c1.37-.44.78-2.63-.6-2.14Zm50.65-34.57c-20 3.5-38.44 12-56.24 21.43-19.35 10.22-38.47 20.9-57.6 31.53q-58.29 32.35-115.84 66c-20.2 11.8-40.82 25.52-64.64 28.12a1.21 1.21 0 0 0-1.08 1.28l-.73-.9a1.2 1.2 0 0 0 .27-.45c.28-.8.54-1.6.8-2.41a1.17 1.17 0 0 0 .49-1.17.5.5 0 0 0-.05-.27c.11-.35.2-.7.31-1a.4.4 0 0 0 .11.15c-.79.87.25 2.47 1.39 1.75.51-.31 1-.63 1.51-1l.64-.29a1.11 1.11 0 0 0 1.31-.16l.82-.79c12.69-5.66 25.34-11.41 37.36-18.41 12.54-7.3 24.13-16 35.43-25.09 24.47-19.6 48.77-39.39 73.62-58.51 1.14-.87 0-2.84-1.14-2-24.26 18.65-48.05 37.87-71.87 57.08-11.86 9.57-24 18.83-37.19 26.51-8.66 5-17.66 9.46-26.76 13.65a518.7 518.7 0 0 0 61.71-48.56c11.9-10.93 23.1-22.6 35-33.51a252.6 252.6 0 0 1 38.15-28.93A246 246 0 0 1 619 89.63c1.36-.48.77-2.67-.61-2.19a248.3 248.3 0 0 0-78 44.59c-12.56 10.63-24 22.47-35.87 33.83Q487 182.6 468 197.66q-15.25 12.08-31.41 22.93c13-14 24.22-29.6 37-43.86a351 351 0 0 1 52.5-47.57c10.6-7.89 21.59-15.25 32.83-22.18 1.24-.77.11-2.73-1.14-2a422 422 0 0 0-56.7 41.41c-18 15.75-33.5 33.48-48.52 52-7.88 9.73-15.9 19.34-24.89 28l-3.24 2.06c10.62-20.64 20.48-42.12 33.48-61.38C470.4 148.59 487 133.56 503.68 119c9.28-8.1 18.62-16.13 27.5-24.68a1.13 1.13 0 0 0-1.6-1.6c-15.87 15.28-33.28 28.86-49 44.28a195 195 0 0 0-21 23.87c-7 9.49-12.75 19.79-18.24 30.19q-3.06 5.81-6.07 11.62 15.6-36.78 34.36-72.11c6.07-11.4 11.83-23.81 20.19-33.77 8.18-9.8 19.32-17.44 29.09-25.56 1.12-.93-.49-2.53-1.6-1.6-10.21 8.5-21.81 16.41-30 26.69-7.72 9.61-13.25 21.11-19 32q-19.39 36.31-35.43 74.29c-.49 1.15.91 2.17 1.66 1.55q-6.11 11.78-12.18 23.58c3.07-10.95 5-22.25 7-33.41 2.59-14 5.08-28.11 7.62-42.17 4.95-27.53 10.07-55.09 18.43-81.83.44-1.4-1.75-2-2.18-.6-8.37 26.74-13.48 54.3-18.44 81.83-2.53 14.06-5 28.12-7.62 42.17-2 10.79-3.83 21.71-6.72 32.32a214 214 0 0 1-1.78-48.39c.68-8.69 1.72-17.33 1.76-26.06a162 162 0 0 0-2.1-26c-.23-1.44-2.41-.83-2.18.6a157.6 157.6 0 0 1 2 27.61c-.17 9-1.37 17.82-1.94 26.74a214.6 214.6 0 0 0 1.79 44.16 281 281 0 0 1-5.44-31.8c-1.45-12.93-1.57-25.88-2.22-38.86a216.4 216.4 0 0 0-16.1-71.63c-.55-1.33-2.74-.75-2.18.6a217.4 217.4 0 0 1 16.15 74c.53 13 .84 25.92 2.42 38.83a293 293 0 0 0 7 36.95c-12.15-16.09-19.59-35.17-24.44-54.68-2.79-11.24-4.13-22.79-7.08-34-2.84-10.74-7.89-20.71-13.67-30.15-3.28-5.35-6.79-10.55-10.31-15.74s-6.92-10-11.74-13.88c-1.13-.9-2.74.69-1.6 1.6 8.76 7 14.75 18 20.63 27.45 6.25 10 11.75 20.54 14.69 32 2.86 11.18 4.24 22.69 7.05 33.89a185 185 0 0 0 10 29.75 122.5 122.5 0 0 0 18.66 30.12c.94 1.11 2.54-.5 1.6-1.6l-.09-.12a.6.6 0 0 0 .27 0 84.4 84.4 0 0 0 14.83-3 5.3 5.3 0 0 0 .92.81 1.15 1.15 0 0 0 1.4-.79l.27-.82c13-4.23 25.23-11.07 37.11-18q28.65-16.74 57.41-33.28 58.46-33.45 117.62-65.62c20.66-11.25 41.84-22.29 65.31-26.39 1.43-.36.82-2.51-.6-2.26m-311 184.63h-.75a1.14 1.14 0 0 0 0 2.27h.75a1.14 1.14 0 0 0 0-2.27m14.73-12.46a1.14 1.14 0 0 0-1.13 1.13v.75a1.13 1.13 0 0 0 1.13 1.14 1.17 1.17 0 0 0 1.14-1.14v-.75a1.15 1.15 0 0 0-1.1-1.13Zm4.91 28.33h-.75a1.13 1.13 0 1 0 0 2.26h.75a1.14 1.14 0 0 0 1.14-1.13 1.16 1.16 0 0 0-1.1-1.13Zm64.26-34.8a1.13 1.13 0 0 0-1.6 0l-.71.71a1.13 1.13 0 1 0 1.6 1.61l.75-.76a1.14 1.14 0 0 0 0-1.56Zm10.54-9.4v2.27c6.08 0 6.08-2.27.04-2.27Zm-74.8 78.19h-.75a1.14 1.14 0 0 0 0 2.27h.75a1.14 1.14 0 0 0 1.14-1.13 1.17 1.17 0 0 0-1.1-1.14Zm6.05 24.92h-1.51a1.14 1.14 0 1 0-.22 2.27.8.8 0 0 0 .22 0h1.51a1.14 1.14 0 0 0 1.13-1.13 1.17 1.17 0 0 0-1.09-1.14Zm8.31 21.54c-.76 0-.76 2.27 0 2.27a1.14 1.14 0 0 0 0-2.27m8.31 48.73h-.72a1.14 1.14 0 0 0-1.13 1.13 1.15 1.15 0 0 0 1.13 1.14h.76a1.14 1.14 0 0 0 0-2.27Zm-14.36-31.35v2.26c6.09 0 6.09-2.26.04-2.26Zm10.64 71.38a1.17 1.17 0 0 0-1.61 0 2.14 2.14 0 0 0 0 3 2.28 2.28 0 0 0 1.7-2.75 3 3 0 0 0-.05-.25Zm7.5-7.17c-6.05 0-6.05 2.27 0 2.27ZM445 500.51c-.75 0-.75 2.27 0 2.27a1.14 1.14 0 0 0 0-2.27m-3.78 26.06h-1.51a1.14 1.14 0 0 0-1.13 1.13 1.15 1.15 0 0 0 1.13 1.13h1.51a1.14 1.14 0 0 0 1.14-1.13 1.16 1.16 0 0 0-1.19-1.13ZM457 545.08c-6 0-6 2.26 0 2.26Zm-3 16.24h-.76a1.13 1.13 0 0 0 0 2.26h.76a1.14 1.14 0 0 0 1.13-1.13 1.17 1.17 0 0 0-1.13-1.13m-14.52 3.55a1.16 1.16 0 0 0-1.55.41l-.76 1.51a1.13 1.13 0 0 0 2 1.14c.25-.5.51-1 .76-1.51a1.18 1.18 0 0 0-.43-1.55ZM451 530.34h-.76a1.14 1.14 0 0 0 0 2.27h.76a1.14 1.14 0 0 0 1.13-1.13 1.17 1.17 0 0 0-1.13-1.14m11.67 56.19h.12c.13-61.5-3.56-116.63-11.28-168.56-2.05-13.91-4.71-28-7.28-41.6s-5.18-27.46-7.25-41.32c-1.23-8.61-2-15.23-2.5-21.47-.06-.77-.15-1.58-.23-2.41-.62-6.05-1.38-13.57 3.54-19.22 3.77-4.28 8.79-7.53 13.22-10.39l2.49-1.62c5-3.32 10.34-6.53 15.82-9.53a219.7 219.7 0 0 1 78.32-25.36l.67-.09.67.12c10.85 1.89 19.54 1.65 27.34-.76 5.63-1.74 10.34-5 15.32-8.52 2-1.37 4-2.79 6.11-4.14 3.45-2.16 7.62-4.38 12.59-4.7 5.14-.31 10 1.21 14 2.43l1.68.53c7 2.16 13.54 4.2 19.78 2.36 4.94-1.47 9.18-5.17 13.35-11.65 1-1.57 2-3.19 3-4.91 2.78-4.76 5.66-9.69 10.06-13.74 5.43-5 13.1-8.2 21.61-9a68.2 68.2 0 0 1 24.14 2.32 112.4 112.4 0 0 1 15.33 5.7c2.73 1.17 5.56 2.38 8.38 3.42 8.81 3.26 16.12 3 21.7-.68s9.84-9.94 12.19-17.7c3.87-12.61 1.78-26.26-.24-39.46-.49-3.2-1-6.51-1.41-9.77-2-15.32-2.62-34.5 9.88-46.9.84-.84 1.7-1.59 2.53-2.31 1.78-1.55 3.31-2.89 4-4.56 1-2.28.66-4.9-1.23-9-4.66-10.19-9.65-20.08-13.91-28.4-2.47-4.85-6.44-11.46-12.46-12.88-6.78-1.6-13.5 4.29-18.6 9.61a63.6 63.6 0 0 0-10.33 14.52L731.16 62l-4.34-3.94c-6.23-5.66-15.28-6-24.85-6.4a114 114 0 0 1-12.91-1c-13-2.08-24.69-8-36-13.71-5.34-2.7-10.86-5.5-16.33-7.77-19.25-8-33.07-7.21-42.24 2.39-4.28 4.49-7.24 10-10.38 15.79-2.81 5.2-5.72 10.59-9.72 15.39-5.26 6.34-11.63 9.4-18.46 8.88-8.37-.65-16.45-6.32-24-16.86-1.37-1.92-2.71-3.89-4-5.8-3.72-5.49-7.23-10.69-11.81-14.82-5.62-5.07-12.74-8-21.15-8.75-8-.69-16.33.63-24.41 1.91l-3.32.52c-10.76 1.64-21.89 3-33.1 4.08-23 2.27-46.49 3.53-67.18 4.65l-2.52.15c-9.11.51-18.53 1.05-27.79-1.21a36.5 36.5 0 0 1-13.59-6.22c-2-1.5-3.78-3.1-5.5-4.64-1.51-1.36-2.94-2.64-4.43-3.79-6-4.62-12.11-5.66-20.59-3.45l-1.63.43c-3.93 1.07-8.4 2.29-13.25 1.2s-8.82-3.95-12.19-6.57c-.89-.69-1.79-1.4-2.68-2.11-5.21-4.15-10.15-8.07-16.22-9.52-7.44-1.83-15.9-.69-25.86 3.36-15.16 6.15-30.87 15.73-49.43 30.15a267 267 0 0 0-21.66 18.78c-.55.53-1.11 1.08-1.66 1.63a49 49 0 0 1-9.27 7.72c-4.85 2.89-10 3.07-14.53 3.23h-1.22c-3.62.14-7.44.41-10.65 1.92s-5.6 4.45-8.09 7.8c-2.24 3-5 6.77-9.73 8.74-4 1.69-8.81 2.06-15 1.16a116 116 0 0 1-12.74-2.84C56 79.71 45.83 77.05 37 82.49c-5 3.08-6.28 8-7.89 14.11-.43 1.64-.87 3.33-1.41 5.05-2.75 8.88-7.64 16.66-12.36 24.19l-.76 1.16C6.24 140.33-1.73 154.68.33 170.65c.62 4.83 2.47 11.63 7.72 16.52 4.09 3.81 9.53 5.69 15.28 7.68 1.09.37 2.17.75 3.25 1.14a30.5 30.5 0 0 1 8.91 4.5l.2.15c4.12 3.38 5.06 7.9 5.82 11.54.15.71.3 1.44.48 2.16 2 7.93 7.89 11.76 12.5 13.57 12.16 4.81 23.68-.13 35.88-5.37 4-1.7 8-3.46 12.17-4.87 9.12-3.11 16.8-3.68 23.49-1.76l.89.25.72.6.12.07a86.3 86.3 0 0 0 49.56 9.17c2.38-.28 4.88-.68 7.41-1.18l1.56-.31 1.41.74.13.05a317.7 317.7 0 0 1 51.37 18.74l3.86 1.8-1.59 4a23.5 23.5 0 0 0-1.68 9.77 27.22 27.22 0 0 0 7.9 17.09c11.38 11.64 29.37 10.33 42.16 3.88a74.6 74.6 0 0 0 9.15-5.78c4.39-3.08 8.93-6.26 14.31-8.23s9.9-1.78 13.81.39c3.15 1.76 5.31 4.41 7.23 6.75a39 39 0 0 0 2.59 3c10.31 10.16 27.1 9.61 39.18 4.56 1.08-.45 2.22-1 3.6-1.65l2-1 2 1a98.6 98.6 0 0 1 22.54 16l.51.49a11.14 11.14 0 0 1 3.86 6.22q.45 1.94.93 3.9l.75 3.15c1.26 5.46 2.5 11 3.66 16.43 4.45 20.65 8.3 41.72 11.44 62.61A1012 1012 0 0 1 438.25 514c.57 23.67.31 47.66-.79 71.32a.5.5 0 0 0 .21-.07l.93-.55 23.12-1.34ZM574.16 69.42A53.5 53.5 0 0 0 584 56.67c5.65-9.7 10.72-23.75 22.41-27.58 8.95-2.94 19 .46 27.4 3.76s16.41 7.74 24.54 11.71 16.19 7.57 24.86 9.58c7.87 1.82 15.81 1.73 23.81 2.19 6.5.38 14.38 1.17 18.48 6.94a4.6 4.6 0 0 0 2.5 1.79l.27.26c-22.32 3.73-44.71 8-65.13 18.14-21.39 10.68-39.82 26.25-58.93 40.41a1055 1055 0 0 1-121.58 77.82q-28.2 15.44-57.3 29.12a436.7 436.7 0 0 1 82.84-98.3c11.05-9.75 22.65-18.85 33.74-28.53 11.9-10.42 23.15-21.59 32.25-34.56m-77.53-39.3c9.12 1.14 16 6 21.66 13.06 10.2 12.89 18.42 31 36.93 32.93a22.1 22.1 0 0 0 10.1-1.21c-16.5 20.41-38.15 36-57.85 53.18a440.8 440.8 0 0 0-61.57 66q-8.56 11.29-16.37 23.14a431.5 431.5 0 0 0 18.71-63.71c3.24-14.86 5.48-29.93 9.06-44.71a195.4 195.4 0 0 1 15.32-41.17 336 336 0 0 1 22.45-37.71c.52.08 1 .13 1.56.2M371.24 40.9c10.94-.59 21.87-1.21 32.79-2 21.73-1.48 43.44-3.52 65-6.81 7.11-1.09 14.39-2.41 21.64-2.38-14.52 21.8-27.48 44.8-34.83 69.93-4.27 14.62-6.47 29.74-9.51 44.64-3 14.69-6.49 29.3-10.78 43.67A347 347 0 0 1 418.34 234c-12.14-23.18-13.12-50-17.71-75.4a300.1 300.1 0 0 0-48.45-116.91c6.32.05 12.74-.44 19.06-.79m85 201.86c5.67.58 11.78 1 17.43-.3a59.5 59.5 0 0 1-15.09 7 32.4 32.4 0 0 1-12.45 1.24c-4.63-.53-8.81-2.7-13.2-4.12a22.4 22.4 0 0 0-13.31-.4 15.2 15.2 0 0 1-2.69-4.86c13-3.38 26.27.07 39.35 1.39Zm-12.72-5.39c16.48-2.1 33-4.18 49.38-6.79a31.4 31.4 0 0 0-4.4 1.93c-4 .72-7.55 3-11.37 4.78-6.87 3.12-15 2.35-22.25 1.54-3.75-.41-7.54-1-11.32-1.46ZM202.64 18.59c15.12-8.86 35-20.6 51.75-9.09 6.36 4.37 11.73 10.16 19.06 13 8.94 3.44 16.45-.66 25.27-1.77s14.44 6.45 20.69 11.4c6.95 5.5 15.06 8.09 23.79 9.08 1.87.21 3.73.34 5.6.42a1.52 1.52 0 0 0 0 1.87A298 298 0 0 1 396.5 157c2.53 13.26 4 26.69 6.31 40s5.84 26.58 12.11 38.66l-5.55 2.54a1.8 1.8 0 0 0-.59.41l-1 .24-.19-.2c-30.24-26.6-49.63-62.29-71-95.8a408.6 408.6 0 0 0-36.74-49.74C286 77.36 270.85 61.43 253.13 50s-39.38-15.67-57-27.48q3.21-2 6.51-3.93m-9.95 6.13c15.74 11.13 34.91 15.51 51.81 24.58 18.57 10 34 26 48.14 41.39a385 385 0 0 1 38.67 50.9c10.59 16.4 20.49 33.25 31.36 49.47 11.83 17.65 24.83 34.56 40.67 48.82l-.46.11a61.85 61.85 0 0 1-26.38-4.54c-9.42-3.89-17.29-10.29-24.58-17.28-15.79-15.11-31-30.84-46.52-46.27L212 78.78c-13.7-13.57-28-27.43-46.5-33.89a261 261 0 0 1 27.19-20.17M102.6 84.36c3.44-3 5.41-7.28 8.67-10.45 6-5.85 16.27-2.75 23.77-4.9 8.55-2.5 14.46-9.6 20.75-15.5 2.1-2 4.25-3.89 6.41-5.79 18.51 5.79 32.74 19.49 46.18 32.85q23.55 23.43 47.12 46.94l47.25 47.09c15.64 15.58 31 31.52 47 46.73 7.52 7.16 15.65 13.61 25.31 17.62.64.26 1.28.51 1.93.75-41-7.86-78.48-27.83-112.23-52-18.69-13.39-36.36-28.1-53.81-43-16.65-14.24-33.55-28.46-53.39-38.09-18.86-9.15-39.16-14.56-59.56-19a23.6 23.6 0 0 0 4.6-3.25M4.79 170.83c-1.23-8.25.88-17.54 4-24.45 7.5-16.64 20.5-30.24 24.59-48.46.86-3.83 1.42-7.92 4.62-10.57a16.1 16.1 0 0 1 8.61-3.17c7.65-.82 14.82 1.52 22.09 3.48 7.09 1.91 14.84 3.56 22.2 2.27 20.38 4.23 40.8 9.13 59.86 17.63 20.74 9.25 38.27 23.34 55.41 38 34 29.05 69 57.71 109.51 77.32A259 259 0 0 0 352 237.32c-38-7.24-73.8-25.22-109-40.69-23.32-10.23-47.08-19.49-72.07-24.73-25.44-5.33-51.51-7-77.45-6.83-29.69.23-59.22 2.93-88.69 5.76M115 210.05a1.9 1.9 0 0 0-.7.4c-10.9 1.19-21.77 6.72-31.88 10.8-7.76 3.13-16 5.48-24.32 3.09a18.26 18.26 0 0 1-8.45-4.83c-3-3.27-3.25-7.23-4.29-11.36-1.91-7.62-7.22-12.27-14.25-15.23-6.24-2.62-13.64-3.8-19-8.21a20.24 20.24 0 0 1-6.49-10.2c52.16-5 105.37-9.88 157.31-.36 51.5 9.44 96.44 36.49 145 54.43 21.75 8 44.44 14.1 67.58 15.47a215.5 215.5 0 0 1-62.91-2.93 214.3 214.3 0 0 1-34.36-9.75c-7.32-2.75-16-6-21.57-11.93a19.48 19.48 0 0 0-8.13-12.44c-7.33-5.09-15.13-5.15-22.79-3.08A220.6 220.6 0 0 0 115 210.05m39 10.89a82.6 82.6 0 0 1-18.62-5.51 5 5 0 0 0-1.11-.9 30 30 0 0 0-9-3.59 216.7 216.7 0 0 1 93.32-4.53c-5 2.08-9.86 4.69-14.38 7a81.52 81.52 0 0 1-50.21 7.53m89.75 22c-15.55-7.23-33.05-14.65-49.41-19.8 1.14-.46 2.27-.92 3.4-1.41 9.8-4.35 18.8-10.87 29.35-13.38 7.55-1.77 18.65-.46 22.3 7.51 3.55 7.72-.54 17.59-4.11 24.22-.51 1-1.08 1.94-1.53 2.91Zm72.94 17.59a1.7 1.7 0 0 0-1.13.81 35.7 35.7 0 0 0-8.5 3.17c-7.66 3.94-14.08 10-22 13.43-7.59 3.26-16.33 4.39-24.28 1.82a24.47 24.47 0 0 1-15.34-14.89c-2.41-7.06.29-13.42 3.59-19.73s8.58-12.92 8.58-20.33v-.09c6 3.26 8.39 5.67 13.23 7.7a208.7 208.7 0 0 0 38.25 11.89 219.5 219.5 0 0 0 58.09 4.22Zm29.47 17.26c-7.31-3.5-10.52-11.59-17.72-15.15-.51-.25-1-.46-1.52-.66l76.48-18.18c.93-.05 1.86-.11 2.79-.2a1.92 1.92 0 0 0 1.41-.8l5.39-1.28a18.6 18.6 0 0 0 2.91 6.2 31 31 0 0 0-5.44 3.36c-7.13 5.42-13.57 11.69-20.78 17-12 8.86-28.65 16.74-43.49 9.64Zm131-16.48a218 218 0 0 0-33.28 19.8c-5 3.58-10.36 7.23-12.87 13-2.59 6-1.72 12.85-1.21 19.18 2.34 28.77 9 56.93 13.94 85.32 5.05 29.24 8.56 58.73 10.86 88.31 2.38 30.65 3.43 61.4 3.52 92.14l-15.92.93a1020 1020 0 0 0-21.4-253.48Q419 318 417 309.44q-1-4.26-2-8.5a12.8 12.8 0 0 0-4-7.1A149.5 149.5 0 0 0 386.37 275c3.63-2.45 8.85-6.53 12.25-9.31s6.58-5.53 9.87-8.3 6.84-6.22 11.12-7.45 8.5.75 12.39 2.22a41.4 41.4 0 0 0 14 3.08c8.93.19 17.65-3 25.4-7.21a101 101 0 0 0 11.6-7.49c3.57-2.64 7.36-6 11.85-6.92s9.15.52 13.46 1.58c4.63 1.14 19.94 4.77 24.53 6.07l1.78.5c-17 3.78-41.66 11.9-57.37 19.47Zm124.49-36.81c-7.48 3.09-13.17 9-20.23 12.83-8.34 4.53-17.6 5.14-26.84 4.06a3.66 3.66 0 0 0-3.41-1.24l-2.61.32c-5.86-1.1-11.63-2.69-17.08-4.21-8.56-2.39-17.17-5.28-26-6.65a28 28 0 0 0-4.19-.35l.41-.07c2.9-.5 5.75-1.08 8.57-1.76a1.9 1.9 0 0 0 1.28.18c30.65-6 62.9-12.07 93.52-4.24a22 22 0 0 0-3.39 1.08Zm70.74-28.5c-5.66 4.11-9.58 9.63-13.12 15.58-3.28 5.52-6.5 12.44-12.52 15.48-6.78 3.44-14.7 0-21.37-2a59 59 0 0 0-8.86-2.08c-25.49-9.43-52.44-8.06-78.88-3.92a683.5 683.5 0 0 1 136-23.88 10 10 0 0 0-1.22.77Zm96.43-64.12c1.48 16 6.62 32.43 3.43 48.53-1.46 7.39-4.87 15.39-11.47 19.59-8.18 5.19-18.06.18-25.86-3.3-13.34-6-28.08-9.91-42.78-8a49 49 0 0 0-9.37 2.09 687.5 687.5 0 0 0-138.61 22.54c8.84-5 17.55-10.31 26.36-15.37 46-26.41 92.54-51.74 140.12-75.07 21.81-10.7 44.45-20.1 66-31.43-8.14 11.51-9.07 26.6-7.79 40.37Zm17.36-50.55a4 4 0 0 1-.48.79c-21.59 12.37-44.79 21.88-67.17 32.7Q682.91 132 648 150.67q-34.6 18.33-68.64 37.84-17 9.7-34 19.6A174.5 174.5 0 0 1 524.3 219c-2.34.71-4.67 1.42-7 2.15a1.8 1.8 0 0 0-1 .81 85 85 0 0 1-6.66 1.83c-14 3.23-28.47 4.61-42.69 6.55l-44.65 6.1a1059 1059 0 0 0 115.63-62.73q30.57-19.15 59.86-40.42c19-13.78 37-29.13 57.24-41.06 24-14.12 50.54-19.3 77.63-23.78a1.63 1.63 0 0 0 1.34-1.92 1.6 1.6 0 0 0-.25-.66 6 6 0 0 0 2-2.56A58.65 58.65 0 0 1 751 42.14c2.72-2.43 6.49-5.78 10.46-5.09 3.46.6 5.91 4 7.63 6.77 4.91 7.88 8.5 16.78 12.59 25.12 1.35 2.85 5.93 9.06 4.53 12.35Z"/></svg>